<?xml version="1.0" standalone="no"?>
<!DOCTYPE svg PUBLIC "-//W3C//DTD SVG 20010904//EN"
 "http://www.w3.org/TR/2001/REC-SVG-20010904/DTD/svg10.dtd">
<svg version="1.0" xmlns="http://www.w3.org/2000/svg"
 width="99.000000pt" height="56.000000pt" viewBox="0 0 99.000000 56.000000"
 preserveAspectRatio="xMidYMid meet">
<metadata>
Created by potrace 1.16, written by Peter Selinger 2001-2019
</metadata>
<g transform="translate(0.000000,56.000000) scale(0.100000,-0.100000)"
fill="#000000" stroke="none">
<path d="M312 474 c-21 -14 -22 -22 -22 -145 0 -108 -2 -129 -15 -129 -20 0
-20 -54 1 -74 23 -24 475 -24 498 0 21 20 21 74 1 74 -13 0 -15 21 -15 125 0
174 13 165 -233 165 -158 0 -197 -3 -215 -16z m396 -151 l-3 -118 -180 0 -180
0 -3 118 -3 117 186 0 186 0 -3 -117z m52 -168 c0 -21 -37 -25 -235 -25 -198
0 -235 4 -235 25 0 9 54 12 235 12 181 0 235 -3 235 -12z"/>
</g>
</svg>
